<?xml version="1.0" encoding="iso-8859-1"?>
<!-- Generator: Adobe Illustrator 16.0.0, SVG Export Plug-In . SVG Version: 6.00 Build 0)  -->
<!DOCTYPE svg PUBLIC "-//W3C//DTD SVG 1.1//EN" "http://www.w3.org/Graphics/SVG/1.1/DTD/svg11.dtd">
<svg xmlns="http://www.w3.org/2000/svg" xmlns:xlink="http://www.w3.org/1999/xlink" version="1.1" id="Capa_1" x="0px" y="0px" width="512px" height="512px" viewBox="0 0 892.965 892.965" style="enable-background:new 0 0 892.965 892.965;" xml:space="preserve">
<g>
	<path d="M868.947,597.153l-176.444-71.768c-2.064-8.634-5.132-16.771-9.01-24.526c21.772-7.76,37.604-27.656,39.48-51.62   c46.739,0.719,83.029-24.403,99.359-52.651c2.941,0.938,6.132,1.845,9.449,1.845c16.392,0,29.721-13.266,29.721-29.659   c0-16.486-13.329-29.721-29.721-29.721c-0.126,0-0.313,0.064-0.439,0.064c-4.13-43.393-24.527-99.955-87.534-99.456l-677.942,5.132   c-2.314-15.112-11.699-26.779-23.964-27.812c-13.64-1.097-25.966,11.136-29.469,28.187h-0.563l-0.501,6.039   c0,0.062,0,0.062,0,0.062L6.801,307.83l-6.693,82.718l0,0c-1.314,19.928,9.511,36.979,24.527,38.198   c15.016,1.221,28.468-13.859,30.345-33.727l282,22.963c-4.003,8.009-6.505,16.957-6.505,26.592   c0,33.131,26.903,60.037,60.066,60.037h73.143c-6.818,15.143-10.887,31.974-10.887,49.681c0,67.262,54.497,121.761,121.698,121.761   c48.928,0,90.726-28.908,110.185-70.454l155.11,63.134c19.646,8.071,42.297-1.438,50.307-21.212   C898.169,627.748,888.596,605.224,868.947,597.153z M574.497,585.39c-17.146,0-31.034-13.892-31.034-31.098   c0-17.145,13.89-31.033,31.034-31.033c17.269,0,31.097,13.89,31.097,31.033C605.593,571.5,591.765,585.39,574.497,585.39z" fill="#933EC5"/>
</g>
<g>
</g>
<g>
</g>
<g>
</g>
<g>
</g>
<g>
</g>
<g>
</g>
<g>
</g>
<g>
</g>
<g>
</g>
<g>
</g>
<g>
</g>
<g>
</g>
<g>
</g>
<g>
</g>
<g>
</g>
</svg>
