<?xml version="1.0" encoding="iso-8859-1"?>
<!-- Generator: Adobe Illustrator 18.1.1, SVG Export Plug-In . SVG Version: 6.00 Build 0)  -->
<svg xmlns="http://www.w3.org/2000/svg" xmlns:xlink="http://www.w3.org/1999/xlink" version="1.1" id="Capa_1" x="0px" y="0px" viewBox="0 0 31.841 31.841" style="enable-background:new 0 0 31.841 31.841;" xml:space="preserve" width="512px" height="512px">
<g>
	<path d="M25.039,7.684c1.04,0,1.905,0.705,2.168,1.664h4.632V6.417L23.733,0H0.001v5.624h12.247V9.38   c0.84,0.309,1.443,1.109,1.443,2.056c0,1.214-0.984,2.199-2.199,2.199c-1.214,0-2.198-0.985-2.198-2.199   c0-1.007,0.683-1.847,1.607-2.107V6.892h-10.9v2.444h5.697l0.007,1.802c0.945,0.221,1.651,1.065,1.651,2.077   c0,1.182-0.958,2.141-2.14,2.141s-2.141-0.958-2.141-2.141c0-0.923,0.59-1.705,1.412-2.002v-0.795H0.001v10.374h14.441l1.787-2.105   c-0.191-0.325-0.308-0.698-0.308-1.104c0-1.214,0.983-2.198,2.198-2.198c1.214,0,2.198,0.983,2.198,2.198s-0.984,2.198-2.198,2.198   c-0.332,0-0.644-0.079-0.924-0.209l-2.204,2.595l-0.079-0.069H0.001v9.743H31.84v-5.644h-4.437c-0.26,0.923-1.1,1.605-2.106,1.605   c-1.214,0-2.197-0.985-2.197-2.198c0-1.215,0.983-2.2,2.197-2.2c1.051,0,1.926,0.738,2.143,1.724h4.4V10.614h-4.658   c-0.288,0.916-1.132,1.584-2.143,1.584c-1.246,0-2.257-1.011-2.257-2.258S23.793,7.684,25.039,7.684z" fill="#006DF0"/>
	<g>
	</g>
	<g>
	</g>
	<g>
	</g>
	<g>
	</g>
	<g>
	</g>
	<g>
	</g>
	<g>
	</g>
	<g>
	</g>
	<g>
	</g>
	<g>
	</g>
	<g>
	</g>
	<g>
	</g>
	<g>
	</g>
	<g>
	</g>
	<g>
	</g>
</g>
<g>
</g>
<g>
</g>
<g>
</g>
<g>
</g>
<g>
</g>
<g>
</g>
<g>
</g>
<g>
</g>
<g>
</g>
<g>
</g>
<g>
</g>
<g>
</g>
<g>
</g>
<g>
</g>
<g>
</g>
</svg>
